<?xml version="1.0" encoding="utf-8"?>
<!-- Generator: Adobe Illustrator 24.0.2, SVG Export Plug-In . SVG Version: 6.00 Build 0)  -->
<svg version="1.1" id="Layer_1" xmlns="http://www.w3.org/2000/svg" xmlns:xlink="http://www.w3.org/1999/xlink" x="0px" y="0px"
	 viewBox="0 0 191 33" style="enable-background:new 0 0 191 33;" xml:space="preserve">
<style type="text/css">
	.st0{fill:#EA4924;}
	.st1{enable-background:new    ;}
	.st2{fill:#FFFFFF;}
</style>
<g>
	<g>
		<g>
			<path class="st0" d="M34.3,14.1l-0.1,12.7h-4.8l0.1-12.2c0-2.4-0.9-3.1-3.4-3.1c-2.4,0-5.1,3.1-5.1,5.7l-0.2,9.5l-5,0.1V7.6
				l4.8,0.1l-0.1,2.4c1.4-1.9,4.5-3,7.2-3C32,7.1,34.3,9.6,34.3,14.1z"/>
		</g>
		<g>
			<path class="st0" d="M11.9,26.8h-5L6.7,10.7c0-0.3,0.2-0.8,0.6-1.1l2.8-1.9c0.9-0.6,1.8-0.2,1.8,0.8l0,0L11.9,26.8L11.9,26.8z"/>
		</g>
		<g>
			<path class="st0" d="M36.8,16.9c0-5.9,4.7-10.2,11-10.2c3,0,5.7,0.9,7.5,2.5c0.3,0.2,0.3,0.9,0,1.2l-2.1,2.7
				c-0.2,0.2-0.4,0.3-1.5-0.2c-1-0.6-2.5-1.5-4.1-1.5c-3.3,0-5.4,2.3-5.4,5.4s1.9,5.4,5.3,5.4c1.6,0,3.3-0.4,4.4-1.2
				c0.2-0.2,1-1.1,1.5-0.7l2.5,2.5c0.3,0.2,0.4,0.7,0.1,1c-1.9,1.7-4.9,3.5-8,3.5C41.4,27.1,36.8,22.9,36.8,16.9z"/>
		</g>
		<g>
			<path class="st0" d="M67.9,22.1c1.9,0,4.1-1.1,5.7-2.3c0.2-0.2,0.6-0.2,0.8,0l2.4,2.2c0.2,0.2,0.2,0.6,0,0.9
				C74.6,24.9,72,26.8,69,27c-6.4,0.5-12-4.1-12-10.5c0-6.1,4.3-10.5,10.7-10.5c6.5,0,9.9,4.7,9.9,9.4c0,0.6-0.2,1.9-0.2,2.8
				l-14.9,0.2C63,20.8,64.9,22.1,67.9,22.1z M62.6,13.8l9.7,0.2c-0.4-2.1-1.9-3.7-4.7-3.7C65,10.4,63.3,11.5,62.6,13.8z"/>
		</g>
		<g>
			<path class="st0" d="M97.8,16.5c0,6.2-4.2,10.1-9.9,10.1h-6c-0.7,0-1.3-0.6-1.3-1.3V7.8c0-0.7,0.6-1.3,1.3-1.3h6
				C93.5,6.4,97.8,10.4,97.8,16.5z M92.6,16.7c0-3.7-2.4-5.8-6.2-5.8L85.2,11v11.2l1.8-0.1C90.7,22.1,92.6,20.5,92.6,16.7z"/>
		</g>
		<g>
			<path class="st0" d="M100.4,16.3c0-6.2,4.4-10.4,10.5-10.4s10.5,4.2,10.5,10.4c0,6.1-4.4,10.4-10.5,10.4
				C104.7,26.8,100.4,22.4,100.4,16.3z M116,16.5c0-3.2-1.9-6-5.2-6c-3.2,0-5.1,2.8-5.1,6s1.9,5.7,5.2,5.7
				C114.2,22.1,116,19.6,116,16.5z"/>
		</g>
	</g>
	<g class="st1">
		<path class="st2" d="M145.6,25.9v-17c0,0-1.2,2.7-1.5,3.3L138,25.9h-0.9L131,12.2c-0.3-0.7-1.4-3.3-1.4-3.3v17h-1V7h1.1l7.9,17.5
			L145.5,7h1.1v19H145.6z"/>
		<path class="st2" d="M163.1,25.9h-1.3l-5.6-8.1h-4.3v8.1h-1.1V7h5.5c3.9,0,5.5,2.6,5.5,5.4c0,2.6-1.4,5-4.6,5.3L163.1,25.9z
			 M151.9,16.8h4.5c3.4,0,4.5-2.2,4.5-4.4c0-2.2-1.1-4.5-4.5-4.5h-4.5V16.8z"/>
		<path class="st2" d="M183.1,25.9v-17c0,0-1.2,2.7-1.5,3.3l-6.1,13.7h-0.9l-6.1-13.7c-0.3-0.7-1.4-3.3-1.4-3.3v17h-1V7h1.1
			l7.9,17.5L183,7h1.1v19H183.1z"/>
	</g>
</g>
</svg>
